<?xml version="1.0" encoding="UTF-8" standalone="no"?>
<svg
   xmlns:dc="http://purl.org/dc/elements/1.1/"
   xmlns:cc="http://creativecommons.org/ns#"
   xmlns:rdf="http://www.w3.org/1999/02/22-rdf-syntax-ns#"
   xmlns:svg="http://www.w3.org/2000/svg"
   xmlns="http://www.w3.org/2000/svg"
   xmlns:sodipodi="http://sodipodi.sourceforge.net/DTD/sodipodi-0.dtd"
   xmlns:inkscape="http://www.inkscape.org/namespaces/inkscape"
   viewBox="0 0 174 249"
   version="1.1"
   id="svg8"
   sodipodi:docname="bullets.svg"
   width="174"
   height="249"
   inkscape:version="1.0.1 (3bc2e813f5, 2020-09-07)">
  <metadata
     id="metadata14">
    <rdf:RDF>
      <cc:Work
         rdf:about="">
        <dc:format>image/svg+xml</dc:format>
        <dc:type
           rdf:resource="http://purl.org/dc/dcmitype/StillImage" />
        <dc:title></dc:title>
      </cc:Work>
    </rdf:RDF>
  </metadata>
  <defs
     id="defs12" />
  <sodipodi:namedview
     pagecolor="#ffffff"
     bordercolor="#666666"
     borderopacity="1"
     objecttolerance="10"
     gridtolerance="10"
     guidetolerance="10"
     inkscape:pageopacity="0"
     inkscape:pageshadow="2"
     inkscape:window-width="1331"
     inkscape:window-height="908"
     id="namedview10"
     showgrid="false"
     inkscape:zoom="1.118665"
     inkscape:cx="-57.454"
     inkscape:cy="88.663414"
     inkscape:window-x="322"
     inkscape:window-y="48"
     inkscape:window-maximized="0"
     inkscape:current-layer="svg8"
     inkscape:document-rotation="0" />
  <g
     id="g19"
     transform="translate(-313,-323.76703)"
     style="fill:#808080">
    <path
       d="m 441,446.76703 v 126 h 46 v -126 z"
       id="path31"
       style="fill:#808080" />
    <path
       d="m 377,446.76703 v 126 h 46 v -126 z"
       id="path29"
       style="fill:#808080" />
    <path
       d="m 313,446.76703 v 126 h 46 v -126 z"
       id="path27"
       style="fill:#808080" />
    <path
       d="m 464,323.76703 c -1,2.4 -2.1,5.2 -3.2,8.7 -3.5,11.3 -7,27.1 -10,43 -4,21.3 -6.9,41.8 -8.5,53.3 h 43.4 c -1.6,-11.5 -4.5,-32 -8.5,-53.3 -3,-15.9 -6.5,-31.7 -10,-43 -1.1,-3.5 -2.2,-6.3 -3.2,-8.7 z"
       id="path25"
       style="fill:#808080" />
    <path
       d="m 400,323.76703 c -1,2.4 -2.1,5.2 -3.2,8.7 -3.5,11.3 -7,27.1 -10,43 -4,21.3 -6.9,41.8 -8.5,53.3 h 43.4 c -1.6,-11.5 -4.5,-32 -8.5,-53.3 -3,-15.9 -6.5,-31.7 -10,-43 -1.1,-3.5 -2.2,-6.3 -3.2,-8.7 z"
       id="path23"
       style="fill:#808080" />
    <path
       d="m 336,323.76703 c -1,2.4 -2.1,5.2 -3.2,8.7 -3.5,11.3 -7,27.1 -10,43 -4,21.3 -6.9,41.8 -8.5,53.3 h 43.4 c -1.6,-11.5 -4.5,-32 -8.5,-53.3 -3,-15.9 -6.5,-31.7 -10,-43 -1.1,-3.5 -2.2,-6.3 -3.2,-8.7 z"
       id="path21"
       style="fill:#808080" />
  </g>
</svg>
